<?xml version="1.0" encoding="UTF-8"?>
<svg id="_Слой_2" data-name="Слой 2" xmlns="http://www.w3.org/2000/svg" xmlns:xlink="http://www.w3.org/1999/xlink" viewBox="0 0 76.47 76.46">
  <defs>
    <style>
      .cls-1 {
        fill: url(#GradientFill_5);
        fill-rule: evenodd;
      }
    </style>
    <linearGradient id="GradientFill_5" data-name="GradientFill 5" x1="19.25" y1="19.2" x2="57.38" y2="57.33" gradientUnits="userSpaceOnUse">
      <stop offset="0" stop-color="#f2948f"/>
      <stop offset="1" stop-color="#ea504b"/>
    </linearGradient>
  </defs>
  <g id="_надшестиугольник" data-name="надшестиугольник">
    <path class="cls-1" d="M25.08.12c-3.59.4-4.16,1.53-6.62,3.99l-14.28,14.27C-.37,22.92.04,23.06.09,29.67c.03,3.7-.05,7.42-.08,11.12-.02,2.34-.03,4.68,0,7.02.01,1.22-.02,2.69.12,3.9.15,1.31.75,2.98,1.63,3.98,1.64,1.87,3.59,3.53,5.34,5.29,3.79,3.81,7.6,7.59,11.4,11.4,4.57,4.58,4.79,4.02,11.43,4.02,3.71,0,7.42.05,11.13.06,2.33,0,4.67,0,7-.02,1.21-.01,2.63.01,3.81-.11,3.75-.44,6.74-4.52,9.24-7.02,3.82-3.81,7.59-7.66,11.44-11.44.92-.9,2.49-2.39,3.08-3.55.84-1.67.77-5.98.77-7.79,0-3.68.05-7.37.06-11.06,0-2.31,0-4.62-.01-6.93-.01-1.2.02-2.59-.1-3.75-.48-3.97-4.33-6.71-6.96-9.35-3.8-3.82-7.66-7.59-11.44-11.44-.92-.94-2.36-2.47-3.54-3.09C52.72,0,48.58.06,46.73.06c-3.66,0-7.32-.05-10.98-.06-2.3,0-4.61-.01-6.91.01-1.2.01-2.59-.02-3.76.1Z"/>
  </g>
</svg>