<?xml version="1.0" encoding="UTF-8"?>
<svg id="_Слой_2" data-name="Слой 2" xmlns="http://www.w3.org/2000/svg" xmlns:xlink="http://www.w3.org/1999/xlink" viewBox="0 0 132.29 159.2">
  <defs>
    <style>
      .cls-1 {
        fill: url(#GradientFill_3);
        fill-rule: evenodd;
      }
    </style>
    <linearGradient id="GradientFill_3" data-name="GradientFill 3" x1="4.92" y1="16.36" x2="124.9" y2="116.07" gradientUnits="userSpaceOnUse">
      <stop offset="0" stop-color="#e5ddef"/>
      <stop offset=".26" stop-color="#e5ddef"/>
      <stop offset="1" stop-color="#8162a7"/>
    </linearGradient>
  </defs>
  <g id="_надзащита" data-name="надзащита">
    <path class="cls-1" d="M66.15,159.2c3.99-1.1,13.96-7.24,17.21-9.24,5.95-3.66,12.1-7.58,17.76-11.69,18.27-13.27,31.18-25.69,31.18-49.67V27.17c0-4.58-.63-7.65-5.3-9.04L68.33.59c-2.66-.79-1.72-.79-4.38,0L5.3,18.13C.63,19.52,0,22.59,0,27.17v61.43c0,23.98,12.91,36.4,31.18,49.67,5.66,4.11,11.8,8.03,17.76,11.69,3.25,2,13.22,8.14,17.21,9.24Z"/>
  </g>
</svg>